<?xml version="1.0" encoding="UTF-8"?>
<svg xmlns="http://www.w3.org/2000/svg" width="40" height="40" viewBox="0 0 40 40">
	<defs>
		<linearGradient x1="100%" y1="100%" x2="0%" y2="0%" id="a">
			<stop stop-color="#498CFF" offset="0%" />
			<stop stop-color="#2DBCFF" offset="100%" />
		</linearGradient>
	</defs>
	<g fill="none" fill-rule="evenodd">
		<rect id="Combined-Shape" fill="url(#a)" width="40" height="40" rx="4" />
		<path d="M9.743 23.983C11.34 28.09 15.33 31 20 31c4.664 0 8.65-2.903 10.25-7H33c0 7.18-5.82 9-13 9S7 31.18 7 24h23.25c.24-.61.424-1.25.55-1.907L30.18 24h-2.146c1.797 0 2.626-1.625 2.776-1.954.125-.663.19-1.347.19-2.046 0-6.075-4.925-11-11-11S9 13.925 9 20c0 .782.082 1.546.237 2.282.318.565 1.144 1.7 2.647 1.7h-2.14zM9.7 23.87c-.115-.306-.217-.618-.304-.936l.304.936zM20 33c-7.18 0-13-5.82-13-13S12.82 7 20 7s13 5.82 13 13-5.82 13-13 13z" fill="#FFF" />
		<path d="M22.576 14.265l1.056.283-1.736 11.97c-.16 1.096-1.15 1.753-2.216 1.467l-.398-.107c-1.064-.285-1.593-1.356-1.185-2.38l4.48-11.233z" fill="#1F60C0" />
	</g>
</svg>
